<?xml version="1.0" encoding="utf-8"?>
<!-- Generator: Adobe Illustrator 17.1.0, SVG Export Plug-In . SVG Version: 6.00 Build 0)  -->
<!DOCTYPE svg PUBLIC "-//W3C//DTD SVG 1.1//EN" "http://www.w3.org/Graphics/SVG/1.1/DTD/svg11.dtd">
<svg version="1.1" id="Calque_1" xmlns="http://www.w3.org/2000/svg" xmlns:xlink="http://www.w3.org/1999/xlink" x="0px" y="0px"
	 viewBox="0 0 1134.3 299" enable-background="new 0 0 1134.3 299" xml:space="preserve">
<g>
	<g id="calque_x5F_1-2_42_">
		
			<rect x="195.5" y="37.2" fill-rule="evenodd" clip-rule="evenodd" fill="none" stroke="#DADDE3" stroke-miterlimit="10" width="4.8" height="4.8"/>
		
			<line fill-rule="evenodd" clip-rule="evenodd" fill="none" stroke="#DADDE3" stroke-miterlimit="10" x1="202.5" y1="39.7" x2="217.7" y2="39.7"/>
		
			<rect x="195.5" y="45.7" fill-rule="evenodd" clip-rule="evenodd" fill="none" stroke="#DADDE3" stroke-miterlimit="10" width="4.8" height="4.8"/>
		
			<line fill-rule="evenodd" clip-rule="evenodd" fill="none" stroke="#DADDE3" stroke-miterlimit="10" x1="202.5" y1="48.2" x2="217.7" y2="48.2"/>
		
			<rect x="195.5" y="54.2" fill-rule="evenodd" clip-rule="evenodd" fill="none" stroke="#DADDE3" stroke-miterlimit="10" width="4.8" height="4.8"/>
		
			<line fill-rule="evenodd" clip-rule="evenodd" fill="none" stroke="#DADDE3" stroke-miterlimit="10" x1="202.5" y1="56.7" x2="217.7" y2="56.7"/>
	</g>
	<g id="calque_x5F_1-2_41_">
		<path fill="#DADDE3" d="M644.8,11.9h-23.6V6.7h23.6V11.9z M622.2,10.9h21.6V7.7h-21.6V10.9z"/>
		<path fill="#DADDE3" d="M644.8,20.6h-23.6v-5.1h23.6V20.6z M622.2,19.6h21.6v-3.1h-21.6V19.6z"/>
		<path fill="#DADDE3" d="M644.8,29.4h-23.6v-5.1h23.6V29.4z M622.2,28.4h21.6v-3.1h-21.6V28.4z"/>
	</g>
	<g id="calque_x5F_1-2_37_">
		<g>
			<path fill="#DADDE3" d="M467,29.4h-22.7V6.7H467V29.4z M445.4,28.3h20.4V7.8h-20.4V28.3z"/>
		</g>
	</g>
	<g id="calque_x5F_1-2_53_">
		<path fill="#DADDE3" d="M157.8,258.2h-22.7v-22.7h22.7V258.2z M136.3,257h20.4v-20.4h-20.4V257z"/>
	</g>
	<g id="calque_x5F_1-2_61_">
		<path fill="#DADDE3" d="M805.7,258.2H783v-22.7h22.7V258.2z M784.2,257h20.4v-20.4h-20.4V257z"/>
	</g>
	<g id="calque_x5F_1-2_36_">
		<path fill="#DADDE3" d="M528.7,79.9l-7.9-7.9l15.7-15.7l7.9,7.9L528.7,79.9z M522.3,72l6.5,6.5l14.3-14.3l-6.5-6.5L522.3,72z"/>
		<polygon fill="#DADDE3" points="521.9,72.3 521.2,71.6 529.1,63.8 536.6,71.3 535.9,72 529.1,65.2 		"/>
	</g>
	<g id="calque_x5F_1-2_21_">
		<path fill="#DADDE3" d="M349.6,158.6l-7.9-7.9l15.7-15.7l7.9,7.9L349.6,158.6z M343.1,150.7l6.5,6.5l14.3-14.3l-6.5-6.5
			L343.1,150.7z"/>
		<polygon fill="#DADDE3" points="342.7,151 342,150.3 349.9,142.5 357.4,150 356.7,150.7 349.9,143.9 		"/>
	</g>
	<path id="calque_x5F_1-2_33_" fill="#DADDE3" d="M396,39.8l-3.5-3.5l-0.9,0.9l-0.9-0.9l-4.2,4.2l0.7,0.7l3.5-3.5l0.2,0.2l-5,5
		l0.2,0.2l-10.3,10.3l0,0l-0.1,0.1l-0.6,0.6l0,0l-2.5,2.5l3,3l3.2-3.2l10.3-10.3l0.2,0.2L396,39.8z M394.6,39.8l-5.2,5.2l-2.1-2.1
		l5.2-5.2L394.6,39.8z M374,56.8l1.8-1.8l0.8,0.8l0.8,0.8l-1.8,1.8L374,56.8z M378.2,55.8l-0.8-0.8l-0.8-0.8l10.3-10.3l1.6,1.6
		L378.2,55.8z"/>
	<g id="calque_x5F_1-2_31_">
		<g>
			<g>
				
					<rect x="293.5" y="16.5" fill-rule="evenodd" clip-rule="evenodd" fill="none" stroke="#DADDE3" stroke-miterlimit="10" width="28" height="21"/>
			</g>
			<g>
				
					<rect x="295.5" y="18.5" fill-rule="evenodd" clip-rule="evenodd" fill="none" stroke="#DADDE3" stroke-miterlimit="10" width="24" height="16"/>
			</g>
		</g>
		
			<line fill-rule="evenodd" clip-rule="evenodd" fill="none" stroke="#DADDE3" stroke-miterlimit="10" x1="301" y1="39.5" x2="314" y2="39.5"/>
	</g>
	<g id="calque_x5F_1-2_29_">
		<g>
			<path fill="#DADDE3" d="M75.2,19.4l9.4,18.8H65.8L75.2,19.4 M75.2,16.8L63.9,39.3h22.6L75.2,16.8L75.2,16.8z"/>
		</g>
	</g>
	<circle id="calque_x5F_1-2_28_" fill="none" stroke="#DADDE3" stroke-miterlimit="10" cx="730" cy="68.1" r="11.2"/>
	<circle id="calque_x5F_1-2_16_" fill="none" stroke="#DADDE3" stroke-miterlimit="10" cx="205.5" cy="173" r="11.2"/>
	<g id="calque_x5F_1-2_52_">
		<rect x="304.7" y="94.1" fill="#DADDE3" width="1.4" height="1.4"/>
		<rect x="300.6" y="94.1" fill="#DADDE3" width="1.4" height="1.4"/>
		<rect x="296.5" y="94.1" fill="#DADDE3" width="1.4" height="1.4"/>
		<rect x="292.4" y="94.1" fill="#DADDE3" width="1.4" height="1.4"/>
		<rect x="288.3" y="94.1" fill="#DADDE3" width="1.4" height="1.4"/>
		<rect x="284.2" y="94.1" fill="#DADDE3" width="1.4" height="1.4"/>
		<rect x="280.1" y="94.1" fill="#DADDE3" width="1.4" height="1.4"/>
		<rect x="304.7" y="98.2" fill="#DADDE3" width="1.4" height="1.4"/>
		<rect x="300.6" y="98.2" fill="#DADDE3" width="1.4" height="1.4"/>
		<rect x="296.5" y="98.2" fill="#DADDE3" width="1.4" height="1.4"/>
		<rect x="292.4" y="98.2" fill="#DADDE3" width="1.4" height="1.4"/>
		<rect x="288.3" y="98.2" fill="#DADDE3" width="1.4" height="1.4"/>
		<rect x="284.2" y="98.2" fill="#DADDE3" width="1.4" height="1.4"/>
		<rect x="280.1" y="98.2" fill="#DADDE3" width="1.4" height="1.4"/>
		<rect x="304.7" y="102.3" fill="#DADDE3" width="1.4" height="1.4"/>
		<rect x="300.6" y="102.3" fill="#DADDE3" width="1.4" height="1.4"/>
		<rect x="296.5" y="102.3" fill="#DADDE3" width="1.4" height="1.4"/>
		<rect x="292.4" y="102.3" fill="#DADDE3" width="1.4" height="1.4"/>
		<rect x="288.3" y="102.3" fill="#DADDE3" width="1.4" height="1.4"/>
		<rect x="284.2" y="102.3" fill="#DADDE3" width="1.4" height="1.4"/>
		<rect x="280.1" y="102.3" fill="#DADDE3" width="1.4" height="1.4"/>
		<rect x="304.7" y="106.4" fill="#DADDE3" width="1.4" height="1.4"/>
		<rect x="300.6" y="106.4" fill="#DADDE3" width="1.4" height="1.4"/>
		<rect x="296.5" y="106.4" fill="#DADDE3" width="1.4" height="1.4"/>
		<rect x="292.4" y="106.4" fill="#DADDE3" width="1.4" height="1.4"/>
		<rect x="288.3" y="106.4" fill="#DADDE3" width="1.4" height="1.4"/>
		<rect x="284.2" y="106.4" fill="#DADDE3" width="1.4" height="1.4"/>
		<rect x="280.1" y="106.4" fill="#DADDE3" width="1.4" height="1.4"/>
		<rect x="304.7" y="110.5" fill="#DADDE3" width="1.4" height="1.4"/>
		<rect x="300.6" y="110.5" fill="#DADDE3" width="1.4" height="1.4"/>
		<rect x="296.5" y="110.5" fill="#DADDE3" width="1.4" height="1.4"/>
		<rect x="292.4" y="110.5" fill="#DADDE3" width="1.4" height="1.4"/>
		<rect x="288.3" y="110.5" fill="#DADDE3" width="1.4" height="1.4"/>
		<rect x="284.2" y="110.5" fill="#DADDE3" width="1.4" height="1.4"/>
		<rect x="280.1" y="110.5" fill="#DADDE3" width="1.4" height="1.4"/>
		<rect x="304.7" y="114.6" fill="#DADDE3" width="1.4" height="1.4"/>
		<rect x="300.6" y="114.6" fill="#DADDE3" width="1.4" height="1.4"/>
		<rect x="296.5" y="114.6" fill="#DADDE3" width="1.4" height="1.4"/>
		<rect x="292.4" y="114.6" fill="#DADDE3" width="1.4" height="1.4"/>
		<rect x="288.3" y="114.6" fill="#DADDE3" width="1.4" height="1.4"/>
		<rect x="284.2" y="114.6" fill="#DADDE3" width="1.4" height="1.4"/>
		<rect x="280.1" y="114.6" fill="#DADDE3" width="1.4" height="1.4"/>
	</g>
	<g id="calque_x5F_1-2_47_">
		<g>
			<path fill="#DADDE3" d="M139,98h15v23h-15V98z M153,99h-13v21h13V99z"/>
			<rect x="140" y="100" fill="#DADDE3" width="14" height="1"/>
			<rect x="140" y="116" fill="#DADDE3" width="14" height="1"/>
		</g>
	</g>
	<g id="calque_x5F_1-2_66_">
		
			<rect x="91.5" y="158.2" fill-rule="evenodd" clip-rule="evenodd" fill="none" stroke="#DADDE3" stroke-miterlimit="10" width="4.8" height="4.8"/>
		
			<line fill-rule="evenodd" clip-rule="evenodd" fill="none" stroke="#DADDE3" stroke-miterlimit="10" x1="89.3" y1="160.7" x2="74.1" y2="160.7"/>
		
			<rect x="91.5" y="166.7" fill-rule="evenodd" clip-rule="evenodd" fill="none" stroke="#DADDE3" stroke-miterlimit="10" width="4.8" height="4.8"/>
		
			<line fill-rule="evenodd" clip-rule="evenodd" fill="none" stroke="#DADDE3" stroke-miterlimit="10" x1="89.3" y1="169.2" x2="74.1" y2="169.2"/>
		
			<rect x="91.5" y="175.2" fill-rule="evenodd" clip-rule="evenodd" fill="none" stroke="#DADDE3" stroke-miterlimit="10" width="4.8" height="4.8"/>
		
			<line fill-rule="evenodd" clip-rule="evenodd" fill="none" stroke="#DADDE3" stroke-miterlimit="10" x1="89.3" y1="177.7" x2="74.1" y2="177.7"/>
	</g>
	<g id="calque_x5F_1-2_64_">
		<g>
			<path fill="#DADDE3" d="M621.2,72.6l9.4,18.8h-18.8L621.2,72.6 M621.2,70l-11.3,22.6h22.6L621.2,70L621.2,70z"/>
		</g>
	</g>
	<g id="calque_x5F_1-2_62_">
		<g>
			<path fill="#DADDE3" d="M33,242H18v-23h15V242z M19,241h13v-21H19V241z"/>
			<rect x="18" y="221" fill="#DADDE3" width="14" height="1"/>
			<rect x="18" y="237" fill="#DADDE3" width="14" height="1"/>
		</g>
	</g>
	<g id="calque_x5F_1-2_58_">
		
			<line fill-rule="evenodd" clip-rule="evenodd" fill="none" stroke="#DADDE3" stroke-width="1.1126" stroke-miterlimit="10" x1="254.6" y1="219" x2="279.6" y2="219"/>
		
			<line fill-rule="evenodd" clip-rule="evenodd" fill="none" stroke="#DADDE3" stroke-width="1.1126" stroke-miterlimit="10" x1="254.6" y1="223.4" x2="279.6" y2="223.4"/>
		
			<line fill-rule="evenodd" clip-rule="evenodd" fill="none" stroke="#DADDE3" stroke-width="1.1126" stroke-miterlimit="10" x1="254.6" y1="227.8" x2="275" y2="227.8"/>
		
			<line fill-rule="evenodd" clip-rule="evenodd" fill="none" stroke="#DADDE3" stroke-width="1.1126" stroke-miterlimit="10" x1="254.6" y1="232.3" x2="279.6" y2="232.3"/>
		
			<line fill-rule="evenodd" clip-rule="evenodd" fill="none" stroke="#DADDE3" stroke-width="1.1126" stroke-miterlimit="10" x1="254.6" y1="236.7" x2="269.4" y2="236.7"/>
		
			<line fill-rule="evenodd" clip-rule="evenodd" fill="none" stroke="#DADDE3" stroke-width="1.1126" stroke-miterlimit="10" x1="254.6" y1="241.1" x2="279.6" y2="241.1"/>
	</g>
	<g id="calque_x5F_1-2_56_">
		<rect x="402.6" y="219.1" fill="#DADDE3" width="1.4" height="1.4"/>
		<rect x="406.7" y="219.1" fill="#DADDE3" width="1.4" height="1.4"/>
		<rect x="410.8" y="219.1" fill="#DADDE3" width="1.4" height="1.4"/>
		<rect x="414.9" y="219.1" fill="#DADDE3" width="1.4" height="1.4"/>
		<rect x="419" y="219.1" fill="#DADDE3" width="1.4" height="1.4"/>
		<rect x="423.1" y="219.1" fill="#DADDE3" width="1.4" height="1.4"/>
		<rect x="427.2" y="219.1" fill="#DADDE3" width="1.4" height="1.4"/>
		<rect x="402.6" y="223.2" fill="#DADDE3" width="1.4" height="1.4"/>
		<rect x="406.7" y="223.2" fill="#DADDE3" width="1.4" height="1.4"/>
		<rect x="410.8" y="223.2" fill="#DADDE3" width="1.4" height="1.4"/>
		<rect x="414.9" y="223.2" fill="#DADDE3" width="1.4" height="1.4"/>
		<rect x="419" y="223.2" fill="#DADDE3" width="1.4" height="1.4"/>
		<rect x="423.1" y="223.2" fill="#DADDE3" width="1.4" height="1.4"/>
		<rect x="427.2" y="223.2" fill="#DADDE3" width="1.4" height="1.4"/>
		<rect x="402.6" y="227.3" fill="#DADDE3" width="1.4" height="1.4"/>
		<rect x="406.7" y="227.3" fill="#DADDE3" width="1.4" height="1.4"/>
		<rect x="410.8" y="227.3" fill="#DADDE3" width="1.4" height="1.4"/>
		<rect x="414.9" y="227.3" fill="#DADDE3" width="1.4" height="1.4"/>
		<rect x="419" y="227.3" fill="#DADDE3" width="1.4" height="1.4"/>
		<rect x="423.1" y="227.3" fill="#DADDE3" width="1.4" height="1.4"/>
		<rect x="427.2" y="227.3" fill="#DADDE3" width="1.4" height="1.4"/>
		<rect x="402.6" y="231.4" fill="#DADDE3" width="1.4" height="1.4"/>
		<rect x="406.7" y="231.4" fill="#DADDE3" width="1.4" height="1.4"/>
		<rect x="410.8" y="231.4" fill="#DADDE3" width="1.4" height="1.4"/>
		<rect x="414.9" y="231.4" fill="#DADDE3" width="1.4" height="1.4"/>
		<rect x="419" y="231.4" fill="#DADDE3" width="1.4" height="1.4"/>
		<rect x="423.1" y="231.4" fill="#DADDE3" width="1.4" height="1.4"/>
		<rect x="427.2" y="231.4" fill="#DADDE3" width="1.4" height="1.4"/>
		<rect x="402.6" y="235.5" fill="#DADDE3" width="1.4" height="1.4"/>
		<rect x="406.7" y="235.5" fill="#DADDE3" width="1.4" height="1.4"/>
		<rect x="410.8" y="235.5" fill="#DADDE3" width="1.4" height="1.4"/>
		<rect x="414.9" y="235.5" fill="#DADDE3" width="1.4" height="1.4"/>
		<rect x="419" y="235.5" fill="#DADDE3" width="1.4" height="1.4"/>
		<rect x="423.1" y="235.5" fill="#DADDE3" width="1.4" height="1.4"/>
		<rect x="427.2" y="235.5" fill="#DADDE3" width="1.4" height="1.4"/>
		<rect x="402.6" y="239.6" fill="#DADDE3" width="1.4" height="1.4"/>
		<rect x="406.7" y="239.6" fill="#DADDE3" width="1.4" height="1.4"/>
		<rect x="410.8" y="239.6" fill="#DADDE3" width="1.4" height="1.4"/>
		<rect x="414.9" y="239.6" fill="#DADDE3" width="1.4" height="1.4"/>
		<rect x="419" y="239.6" fill="#DADDE3" width="1.4" height="1.4"/>
		<rect x="423.1" y="239.6" fill="#DADDE3" width="1.4" height="1.4"/>
		<rect x="427.2" y="239.6" fill="#DADDE3" width="1.4" height="1.4"/>
	</g>
	<g id="calque_x5F_1-2_25_">
		<g>
			
				<rect x="334.5" y="258.5" fill-rule="evenodd" clip-rule="evenodd" fill="none" stroke="#DADDE3" stroke-miterlimit="10" width="19" height="23"/>
			
				<rect x="343.4" y="278.6" fill-rule="evenodd" clip-rule="evenodd" fill="none" stroke="#DADDE3" stroke-width="0.7931" stroke-miterlimit="10" width="1.4" height="1.4"/>
		</g>
		<g>
			
				<rect x="336.5" y="260.5" fill-rule="evenodd" clip-rule="evenodd" fill="none" stroke="#DADDE3" stroke-miterlimit="10" width="15" height="17"/>
		</g>
	</g>
	<g id="calque_x5F_1-2_69_">
		<path fill="#DADDE3" d="M594.5,223.9h-23.6v-5.1h23.6V223.9z M571.8,222.9h21.6v-3.1h-21.6V222.9z"/>
		<path fill="#DADDE3" d="M594.5,232.6h-23.6v-5.1h23.6V232.6z M571.8,231.6h21.6v-3.1h-21.6V231.6z"/>
		<path fill="#DADDE3" d="M594.5,241.4h-23.6v-5.1h23.6V241.4z M571.8,240.4h21.6v-3.1h-21.6V240.4z"/>
	</g>
	<g id="calque_x5F_1-2_68_">
		<path fill="#DADDE3" d="M481.2,262.9l-7.9-7.9l15.7-15.7l7.9,7.9L481.2,262.9z M474.7,255l6.5,6.5l14.3-14.3l-6.5-6.5L474.7,255z"
			/>
		<polygon fill="#DADDE3" points="474.3,255.4 473.6,254.7 481.5,246.8 489,254.4 488.3,255.1 481.5,248.2 		"/>
	</g>
	<circle id="calque_x5F_1-2_63_" fill="none" stroke="#DADDE3" stroke-miterlimit="10" cx="673" cy="281.1" r="11.2"/>
	<rect x="396.8" y="110.2" fill-rule="evenodd" clip-rule="evenodd" fill="#FFFFFF" width="353.6" height="92.8"/>
	<path id="calque_x5F_1-2_60_" fill="#DADDE3" d="M1051.6,260.4l0.2-0.2l10.3,10.3l3.2,3.2l3-3l-2.5-2.5l0,0l-0.6-0.6l-0.1-0.1l0,0
		l-10.3-10.3l0.2-0.2l-5-5l0.2-0.2l3.5,3.5l0.7-0.7l-4.2-4.2l-0.9,0.9l-0.9-0.9l-3.5,3.5L1051.6,260.4z M1048.5,251.7l5.2,5.2
		l-2.1,2.1l-5.2-5.2L1048.5,251.7z M1065.4,272.3l-1.8-1.8l0.8-0.8l0.8-0.8l1.8,1.8L1065.4,272.3z M1052.5,259.4l1.6-1.6l10.3,10.3
		l-0.8,0.8l-0.8,0.8L1052.5,259.4z"/>
	<g id="calque_x5F_1-2_79_">
		
			<rect x="942.9" y="28.2" fill-rule="evenodd" clip-rule="evenodd" fill="none" stroke="#DADDE3" stroke-miterlimit="10" width="4.8" height="4.8"/>
		
			<line fill-rule="evenodd" clip-rule="evenodd" fill="none" stroke="#DADDE3" stroke-miterlimit="10" x1="940.6" y1="30.7" x2="925.5" y2="30.7"/>
		
			<rect x="942.9" y="36.7" fill-rule="evenodd" clip-rule="evenodd" fill="none" stroke="#DADDE3" stroke-miterlimit="10" width="4.8" height="4.8"/>
		
			<line fill-rule="evenodd" clip-rule="evenodd" fill="none" stroke="#DADDE3" stroke-miterlimit="10" x1="940.6" y1="39.2" x2="925.5" y2="39.2"/>
		
			<rect x="942.9" y="45.2" fill-rule="evenodd" clip-rule="evenodd" fill="none" stroke="#DADDE3" stroke-miterlimit="10" width="4.8" height="4.8"/>
		
			<line fill-rule="evenodd" clip-rule="evenodd" fill="none" stroke="#DADDE3" stroke-miterlimit="10" x1="940.6" y1="47.7" x2="925.5" y2="47.7"/>
	</g>
	<g id="calque_x5F_1-2_78_">
		<path fill="#DADDE3" d="M770.9,133.8l7.9-7.9l15.7,15.7l-7.9,7.9L770.9,133.8z M778.8,127.4l-6.5,6.5l14.3,14.3l6.5-6.5
			L778.8,127.4z"/>
		<polygon fill="#DADDE3" points="793.4,142 794.1,141.3 786.3,133.5 778.7,141 779.4,141.7 786.3,134.9 		"/>
	</g>
	<path id="calque_x5F_1-2_77_" fill="#DADDE3" d="M12.9,101.2l0.2-0.2l10.3,10.3l3.2,3.2l3-3l-2.5-2.5l0,0l-0.6-0.6l-0.1-0.1l0,0
		L16.1,98l0.2-0.2l-5-5l0.2-0.2l3.5,3.5l0.7-0.7l-4.2-4.2L10.7,92l-0.9-0.9l-3.5,3.5L12.9,101.2z M9.8,92.6l5.2,5.2l-2.1,2.1
		l-5.2-5.2L9.8,92.6z M26.7,113.1l-1.8-1.8l0.8-0.8l0.8-0.8l1.8,1.8L26.7,113.1z M13.8,100.2l1.6-1.6L25.7,109l-0.8,0.8l-0.8,0.8
		L13.8,100.2z"/>
	<g id="calque_x5F_1-2_76_">
		<g>
			<g>
				
					<rect x="821.5" y="7.5" fill-rule="evenodd" clip-rule="evenodd" fill="none" stroke="#DADDE3" stroke-miterlimit="10" width="28" height="21"/>
			</g>
			<g>
				
					<rect x="823.5" y="9.5" fill-rule="evenodd" clip-rule="evenodd" fill="none" stroke="#DADDE3" stroke-miterlimit="10" width="24" height="16"/>
			</g>
		</g>
		
			<line fill-rule="evenodd" clip-rule="evenodd" fill="none" stroke="#DADDE3" stroke-miterlimit="10" x1="842" y1="30.5" x2="829" y2="30.5"/>
	</g>
	<g id="calque_x5F_1-2_75_">
		<g>
			<path fill="#DADDE3" d="M1068,10.4l9.4,18.8h-18.8L1068,10.4 M1068,7.8l-11.3,22.6h22.6L1068,7.8L1068,7.8z"/>
		</g>
	</g>
	<g id="calque_x5F_1-2_59_">
		<rect x="863.1" y="89.1" fill="#DADDE3" width="1.4" height="1.4"/>
		<rect x="867.2" y="89.1" fill="#DADDE3" width="1.4" height="1.4"/>
		<rect x="871.3" y="89.1" fill="#DADDE3" width="1.4" height="1.4"/>
		<rect x="875.3" y="89.1" fill="#DADDE3" width="1.4" height="1.4"/>
		<rect x="879.4" y="89.1" fill="#DADDE3" width="1.4" height="1.4"/>
		<rect x="883.5" y="89.1" fill="#DADDE3" width="1.4" height="1.4"/>
		<rect x="887.6" y="89.1" fill="#DADDE3" width="1.4" height="1.4"/>
		<rect x="863.1" y="93.2" fill="#DADDE3" width="1.4" height="1.4"/>
		<rect x="867.2" y="93.2" fill="#DADDE3" width="1.4" height="1.4"/>
		<rect x="871.3" y="93.2" fill="#DADDE3" width="1.4" height="1.4"/>
		<rect x="875.3" y="93.2" fill="#DADDE3" width="1.4" height="1.4"/>
		<rect x="879.4" y="93.2" fill="#DADDE3" width="1.4" height="1.4"/>
		<rect x="883.5" y="93.2" fill="#DADDE3" width="1.4" height="1.4"/>
		<rect x="887.6" y="93.2" fill="#DADDE3" width="1.4" height="1.4"/>
		<rect x="863.1" y="97.3" fill="#DADDE3" width="1.4" height="1.4"/>
		<rect x="867.2" y="97.3" fill="#DADDE3" width="1.4" height="1.4"/>
		<rect x="871.3" y="97.3" fill="#DADDE3" width="1.4" height="1.4"/>
		<rect x="875.3" y="97.3" fill="#DADDE3" width="1.4" height="1.4"/>
		<rect x="879.4" y="97.3" fill="#DADDE3" width="1.4" height="1.4"/>
		<rect x="883.5" y="97.3" fill="#DADDE3" width="1.4" height="1.4"/>
		<rect x="887.6" y="97.3" fill="#DADDE3" width="1.4" height="1.4"/>
		<rect x="863.1" y="101.4" fill="#DADDE3" width="1.4" height="1.4"/>
		<rect x="867.2" y="101.4" fill="#DADDE3" width="1.4" height="1.4"/>
		<rect x="871.3" y="101.4" fill="#DADDE3" width="1.4" height="1.4"/>
		<rect x="875.3" y="101.4" fill="#DADDE3" width="1.4" height="1.4"/>
		<rect x="879.4" y="101.4" fill="#DADDE3" width="1.4" height="1.4"/>
		<rect x="883.5" y="101.4" fill="#DADDE3" width="1.4" height="1.4"/>
		<rect x="887.6" y="101.4" fill="#DADDE3" width="1.4" height="1.4"/>
		<rect x="863.1" y="105.5" fill="#DADDE3" width="1.4" height="1.4"/>
		<rect x="867.2" y="105.5" fill="#DADDE3" width="1.4" height="1.4"/>
		<rect x="871.3" y="105.5" fill="#DADDE3" width="1.4" height="1.4"/>
		<rect x="875.3" y="105.5" fill="#DADDE3" width="1.4" height="1.4"/>
		<rect x="879.4" y="105.5" fill="#DADDE3" width="1.4" height="1.4"/>
		<rect x="883.5" y="105.5" fill="#DADDE3" width="1.4" height="1.4"/>
		<rect x="887.6" y="105.5" fill="#DADDE3" width="1.4" height="1.4"/>
		<rect x="863.1" y="109.6" fill="#DADDE3" width="1.4" height="1.4"/>
		<rect x="867.2" y="109.6" fill="#DADDE3" width="1.4" height="1.4"/>
		<rect x="871.3" y="109.6" fill="#DADDE3" width="1.4" height="1.4"/>
		<rect x="875.3" y="109.6" fill="#DADDE3" width="1.4" height="1.4"/>
		<rect x="879.4" y="109.6" fill="#DADDE3" width="1.4" height="1.4"/>
		<rect x="883.5" y="109.6" fill="#DADDE3" width="1.4" height="1.4"/>
		<rect x="887.6" y="109.6" fill="#DADDE3" width="1.4" height="1.4"/>
	</g>
	<g id="calque_x5F_1-2_48_">
		<g>
			<path fill="#DADDE3" d="M1004,112h-15V89h15V112z M990,111h13V90h-13V111z"/>
			<rect x="989" y="91" fill="#DADDE3" width="14" height="1"/>
			<rect x="989" y="107" fill="#DADDE3" width="14" height="1"/>
		</g>
	</g>
	<g id="calque_x5F_1-2_44_">
		
			<polygon fill-rule="evenodd" clip-rule="evenodd" fill="none" stroke="#DADDE3" stroke-width="0.9262" stroke-miterlimit="10" points="
			1128,89.6 1124.2,89.6 1124.2,110.5 1128,110.5 1128,89.6 1128,89.6 		"/>
		
			<polygon fill-rule="evenodd" clip-rule="evenodd" fill="none" stroke="#DADDE3" stroke-width="0.9262" stroke-miterlimit="10" points="
			1119.9,89.6 1116.1,89.6 1116.1,110.5 1119.9,110.5 1119.9,89.6 1119.9,89.6 		"/>
		
			<polygon fill-rule="evenodd" clip-rule="evenodd" fill="none" stroke="#DADDE3" stroke-width="0.9262" stroke-miterlimit="10" points="
			1111.8,89.6 1108,89.6 1108,110.5 1111.8,110.5 1111.8,89.6 1111.8,89.6 		"/>
	</g>
	<g id="calque_x5F_1-2_43_">
		
			<rect x="1046.9" y="149.2" fill-rule="evenodd" clip-rule="evenodd" fill="none" stroke="#DADDE3" stroke-miterlimit="10" width="4.8" height="4.8"/>
		
			<line fill-rule="evenodd" clip-rule="evenodd" fill="none" stroke="#DADDE3" stroke-miterlimit="10" x1="1053.9" y1="151.7" x2="1069" y2="151.7"/>
		
			<rect x="1046.9" y="157.7" fill-rule="evenodd" clip-rule="evenodd" fill="none" stroke="#DADDE3" stroke-miterlimit="10" width="4.8" height="4.8"/>
		
			<line fill-rule="evenodd" clip-rule="evenodd" fill="none" stroke="#DADDE3" stroke-miterlimit="10" x1="1053.9" y1="160.2" x2="1069" y2="160.2"/>
		
			<rect x="1046.9" y="166.2" fill-rule="evenodd" clip-rule="evenodd" fill="none" stroke="#DADDE3" stroke-miterlimit="10" width="4.8" height="4.8"/>
		
			<line fill-rule="evenodd" clip-rule="evenodd" fill="none" stroke="#DADDE3" stroke-miterlimit="10" x1="1053.9" y1="168.7" x2="1069" y2="168.7"/>
	</g>
	<g id="calque_x5F_1-2_39_">
		<g>
			<path fill="#DADDE3" d="M936.6,151.4l9.4,18.8h-18.8L936.6,151.4 M936.6,148.8l-11.3,22.6h22.6L936.6,148.8L936.6,148.8z"/>
		</g>
	</g>
	<g id="calque_x5F_1-2_32_">
		<g>
			<path fill="#DADDE3" d="M1110,210h15v23h-15V210z M1124,211h-13v21h13V211z"/>
			<rect x="1111" y="212" fill="#DADDE3" width="14" height="1"/>
			<rect x="1111" y="228" fill="#DADDE3" width="14" height="1"/>
		</g>
	</g>
	<g id="calque_x5F_1-2_30_">
		
			<polygon fill-rule="evenodd" clip-rule="evenodd" fill="none" stroke="#DADDE3" stroke-width="0.9262" stroke-miterlimit="10" points="
			966.6,230.6 970.4,230.6 970.4,251.5 966.6,251.5 966.6,230.6 966.6,230.6 		"/>
		
			<polygon fill-rule="evenodd" clip-rule="evenodd" fill="none" stroke="#DADDE3" stroke-width="0.9262" stroke-miterlimit="10" points="
			974.6,230.6 978.5,230.6 978.5,251.5 974.6,251.5 974.6,230.6 974.6,230.6 		"/>
		
			<polygon fill-rule="evenodd" clip-rule="evenodd" fill="none" stroke="#DADDE3" stroke-width="0.9262" stroke-miterlimit="10" points="
			982.8,230.6 986.6,230.6 986.6,251.5 982.8,251.5 982.8,230.6 982.8,230.6 		"/>
	</g>
	<g id="calque_x5F_1-2_27_">
		
			<line fill-rule="evenodd" clip-rule="evenodd" fill="none" stroke="#DADDE3" stroke-width="1.1126" stroke-miterlimit="10" x1="888.5" y1="210" x2="863.6" y2="210"/>
		
			<line fill-rule="evenodd" clip-rule="evenodd" fill="none" stroke="#DADDE3" stroke-width="1.1126" stroke-miterlimit="10" x1="888.5" y1="214.4" x2="863.6" y2="214.4"/>
		
			<line fill-rule="evenodd" clip-rule="evenodd" fill="none" stroke="#DADDE3" stroke-width="1.1126" stroke-miterlimit="10" x1="888.5" y1="218.8" x2="868.2" y2="218.8"/>
		
			<line fill-rule="evenodd" clip-rule="evenodd" fill="none" stroke="#DADDE3" stroke-width="1.1126" stroke-miterlimit="10" x1="888.5" y1="223.3" x2="863.6" y2="223.3"/>
		
			<line fill-rule="evenodd" clip-rule="evenodd" fill="none" stroke="#DADDE3" stroke-width="1.1126" stroke-miterlimit="10" x1="888.5" y1="227.7" x2="873.8" y2="227.7"/>
		
			<line fill-rule="evenodd" clip-rule="evenodd" fill="none" stroke="#DADDE3" stroke-width="1.1126" stroke-miterlimit="10" x1="888.5" y1="232.1" x2="863.6" y2="232.1"/>
	</g>
	<path id="calque_x5F_1-2_23_" fill="#DADDE3" d="M722.9,209.5l-3.5-3.5l-0.9,0.9l-0.9-0.9l-4.2,4.2l0.7,0.7l3.5-3.5l0.2,0.2l-5,5
		l0.2,0.2l-10.3,10.3l0,0l-0.1,0.1l-0.6,0.6l0,0l-2.5,2.5l3,3l3.2-3.2l10.3-10.3l0.2,0.2L722.9,209.5z M721.4,209.5l-5.2,5.2
		l-2.1-2.1l5.2-5.2L721.4,209.5z M700.9,226.4l1.8-1.8l0.8,0.8l0.8,0.8l-1.8,1.8L700.9,226.4z M705,225.4l-0.8-0.8l-0.8-0.8
		l10.3-10.3l1.6,1.6L705,225.4z"/>
</g>
</svg>
