<?xml version="1.0" encoding="utf-8"?>
<!-- Generator: Adobe Illustrator 17.1.0, SVG Export Plug-In . SVG Version: 6.00 Build 0)  -->
<!DOCTYPE svg PUBLIC "-//W3C//DTD SVG 1.1//EN" "http://www.w3.org/Graphics/SVG/1.1/DTD/svg11.dtd">
<svg version="1.1" xmlns="http://www.w3.org/2000/svg" xmlns:xlink="http://www.w3.org/1999/xlink" x="0px" y="0px"
	 viewBox="0 0 222.5 248" enable-background="new 0 0 222.5 248" xml:space="preserve">
<g id="Calque_173">
	<circle fill="#8991A5" cx="7.1" cy="6" r="2.9"/>
</g>
<g id="Calque_172">
	<circle fill="#8991A5" cx="23" cy="6" r="2.9"/>
</g>
<g id="Calque_171">
	<circle fill="#8991A5" cx="38.9" cy="6" r="2.9"/>
</g>
<g id="Calque_170">
	<circle fill="#8991A5" cx="54.9" cy="6" r="2.9"/>
</g>
<g id="Calque_169">
	<circle fill="#8991A5" cx="70.8" cy="6" r="2.9"/>
</g>
<g id="Calque_168">
	<circle fill="#8991A5" cx="86.7" cy="6" r="2.9"/>
</g>
<g id="Calque_167">
	<circle fill="#8991A5" cx="102.6" cy="6" r="2.9"/>
</g>
<g id="Calque_166">
	<circle fill="#8991A5" cx="118.6" cy="6" r="2.9"/>
</g>
<g id="Calque_165">
	<circle fill="#8991A5" cx="134.5" cy="6" r="2.9"/>
</g>
<g id="Calque_164">
	<circle fill="#8991A5" cx="150.4" cy="6" r="2.9"/>
</g>
<g id="Calque_163">
	<circle fill="#8991A5" cx="166.3" cy="6" r="2.9"/>
</g>
<g id="Calque_162">
	<circle fill="#8991A5" cx="182.2" cy="6" r="2.9"/>
</g>
<g id="Calque_161">
	<circle fill="#8991A5" cx="198.2" cy="6" r="2.9"/>
</g>
<g id="Calque_160">
	<circle fill="#8991A5" cx="214.1" cy="6" r="2.9"/>
</g>
<g id="Calque_159">
	<circle fill="#8991A5" cx="7.1" cy="22" r="2.9"/>
</g>
<g id="Calque_158">
	<circle fill="#8991A5" cx="23" cy="22" r="2.9"/>
</g>
<g id="Calque_157">
	<circle fill="#8991A5" cx="38.9" cy="22" r="2.9"/>
</g>
<g id="Calque_156">
	<circle fill="#8991A5" cx="54.9" cy="22" r="2.9"/>
</g>
<g id="Calque_155">
	<circle fill="#8991A5" cx="70.8" cy="22" r="2.9"/>
</g>
<g id="Calque_154">
	<circle fill="#8991A5" cx="86.7" cy="22" r="2.9"/>
</g>
<g id="Calque_153">
	<circle fill="#8991A5" cx="102.6" cy="22" r="2.9"/>
</g>
<g id="Calque_152">
	<circle fill="#8991A5" cx="118.6" cy="22" r="2.9"/>
</g>
<g id="Calque_151">
	<circle fill="#8991A5" cx="134.5" cy="22" r="2.9"/>
</g>
<g id="Calque_150">
	<circle fill="#8991A5" cx="150.4" cy="22" r="2.9"/>
</g>
<g id="Calque_149">
	<circle fill="#8991A5" cx="166.3" cy="22" r="2.9"/>
</g>
<g id="Calque_148">
	<circle fill="#8991A5" cx="182.2" cy="22" r="2.9"/>
</g>
<g id="Calque_147">
	<circle fill="#8991A5" cx="198.2" cy="22" r="2.9"/>
</g>
<g id="Calque_146">
	<circle fill="#8991A5" cx="214.1" cy="22" r="2.9"/>
</g>
<g id="Calque_145">
	<circle fill="#8991A5" cx="7.1" cy="37.9" r="2.9"/>
</g>
<g id="Calque_144">
	<circle fill="#8991A5" cx="23" cy="37.9" r="2.9"/>
</g>
<g id="Calque_143">
	<circle fill="#8991A5" cx="38.9" cy="37.9" r="2.9"/>
</g>
<g id="Calque_142">
	<circle fill="#8991A5" cx="54.9" cy="37.9" r="2.9"/>
</g>
<g id="Calque_141">
	<circle fill="#8991A5" cx="70.8" cy="37.9" r="2.9"/>
</g>
<g id="Calque_140">
	<circle fill="#8991A5" cx="86.7" cy="37.9" r="2.9"/>
</g>
<g id="Calque_139">
	<circle fill="#8991A5" cx="102.6" cy="37.9" r="2.9"/>
</g>
<g id="Calque_138">
	<circle fill="#8991A5" cx="118.6" cy="37.9" r="2.9"/>
</g>
<g id="Calque_137">
	<circle fill="#8991A5" cx="134.5" cy="37.9" r="2.9"/>
</g>
<g id="Calque_136">
	<circle fill="#8991A5" cx="150.4" cy="37.9" r="2.9"/>
</g>
<g id="Calque_135">
	<circle fill="#8991A5" cx="166.3" cy="37.9" r="2.9"/>
</g>
<g id="Calque_134">
	<circle fill="#8991A5" cx="182.2" cy="37.9" r="2.9"/>
</g>
<g id="Calque_133">
	<circle fill="#8991A5" cx="198.2" cy="37.9" r="2.9"/>
</g>
<g id="Calque_132">
	<circle fill="#8991A5" cx="214.1" cy="37.9" r="2.9"/>
</g>
<g id="Calque_131">
	<circle fill="#8991A5" cx="7.1" cy="53.8" r="2.9"/>
</g>
<g id="Calque_130">
	<circle fill="#8991A5" cx="23" cy="53.8" r="2.9"/>
</g>
<g id="Calque_129">
	<circle fill="#8991A5" cx="38.9" cy="53.8" r="2.9"/>
</g>
<g id="Calque_128">
	<circle fill="#8991A5" cx="54.9" cy="53.8" r="2.9"/>
</g>
<g id="Calque_127">
	<circle fill="#8991A5" cx="70.8" cy="53.8" r="2.9"/>
</g>
<g id="Calque_126">
	<circle fill="#8991A5" cx="86.7" cy="53.8" r="2.9"/>
</g>
<g id="Calque_125">
	<circle fill="#8991A5" cx="102.6" cy="53.8" r="2.9"/>
</g>
<g id="Calque_124">
	<circle fill="#8991A5" cx="118.6" cy="53.8" r="2.9"/>
</g>
<g id="Calque_123">
	<circle fill="#8991A5" cx="134.5" cy="53.8" r="2.9"/>
</g>
<g id="Calque_122">
	<circle fill="#8991A5" cx="150.4" cy="53.8" r="2.9"/>
</g>
<g id="Calque_121">
	<circle fill="#8991A5" cx="166.3" cy="53.8" r="2.9"/>
</g>
<g id="Calque_120">
	<circle fill="#8991A5" cx="182.2" cy="53.8" r="2.9"/>
</g>
<g id="Calque_119">
	<circle fill="#8991A5" cx="198.2" cy="53.8" r="2.9"/>
</g>
<g id="Calque_118">
	<circle fill="#8991A5" cx="214.1" cy="53.8" r="2.9"/>
</g>
<g id="Calque_117">
	<circle fill="#8991A5" cx="7.1" cy="69.7" r="2.9"/>
</g>
<g id="Calque_116">
	<circle fill="#8991A5" cx="23" cy="69.7" r="2.9"/>
</g>
<g id="Calque_115">
	<circle fill="#8991A5" cx="38.9" cy="69.7" r="2.9"/>
</g>
<g id="Calque_114">
	<circle fill="#8991A5" cx="54.9" cy="69.7" r="2.9"/>
</g>
<g id="Calque_113">
	<circle fill="#8991A5" cx="70.8" cy="69.7" r="2.9"/>
</g>
<g id="Calque_112">
	<circle fill="#8991A5" cx="86.7" cy="69.7" r="2.9"/>
</g>
<g id="Calque_111">
	<circle fill="#8991A5" cx="102.6" cy="69.7" r="2.9"/>
</g>
<g id="Calque_110">
	<circle fill="#8991A5" cx="118.6" cy="69.7" r="2.9"/>
</g>
<g id="Calque_109">
	<circle fill="#8991A5" cx="134.5" cy="69.7" r="2.9"/>
</g>
<g id="Calque_108">
	<circle fill="#8991A5" cx="150.4" cy="69.7" r="2.9"/>
</g>
<g id="Calque_107">
	<circle fill="#8991A5" cx="166.3" cy="69.7" r="2.9"/>
</g>
<g id="Calque_106">
	<circle fill="#8991A5" cx="182.2" cy="69.7" r="2.9"/>
</g>
<g id="Calque_105">
	<circle fill="#8991A5" cx="198.2" cy="69.7" r="2.9"/>
</g>
<g id="Calque_104">
	<circle fill="#8991A5" cx="214.1" cy="69.7" r="2.9"/>
</g>
<g id="Calque_103">
	<circle fill="#8991A5" cx="7.1" cy="85.6" r="2.9"/>
</g>
<g id="Calque_102">
	<circle fill="#8991A5" cx="23" cy="85.6" r="2.9"/>
</g>
<g id="Calque_101">
	<circle fill="#8991A5" cx="38.9" cy="85.6" r="2.9"/>
</g>
<g id="Calque_100">
	<circle fill="#8991A5" cx="54.9" cy="85.6" r="2.9"/>
</g>
<g id="Calque_99">
	<circle fill="#8991A5" cx="70.8" cy="85.6" r="2.9"/>
</g>
<g id="Calque_98">
	<circle fill="#8991A5" cx="86.7" cy="85.6" r="2.9"/>
</g>
<g id="Calque_97">
	<circle fill="#8991A5" cx="102.6" cy="85.6" r="2.9"/>
</g>
<g id="Calque_96">
	<circle fill="#8991A5" cx="118.6" cy="85.6" r="2.9"/>
</g>
<g id="Calque_95">
	<circle fill="#8991A5" cx="134.5" cy="85.6" r="2.9"/>
</g>
<g id="Calque_94">
	<circle fill="#8991A5" cx="150.4" cy="85.6" r="2.9"/>
</g>
<g id="Calque_93">
	<circle fill="#8991A5" cx="166.3" cy="85.6" r="2.9"/>
</g>
<g id="Calque_92">
	<circle fill="#8991A5" cx="182.2" cy="85.6" r="2.9"/>
</g>
<g id="Calque_91">
	<circle fill="#8991A5" cx="198.2" cy="85.6" r="2.9"/>
</g>
<g id="Calque_90">
	<circle fill="#8991A5" cx="214.1" cy="85.6" r="2.9"/>
</g>
<g id="Calque_89">
	<circle fill="#8991A5" cx="7.1" cy="101.6" r="2.9"/>
</g>
<g id="Calque_88">
	<circle fill="#8991A5" cx="23" cy="101.6" r="2.9"/>
</g>
<g id="Calque_87">
	<circle fill="#8991A5" cx="38.9" cy="101.6" r="2.9"/>
</g>
<g id="Calque_86">
	<circle fill="#8991A5" cx="54.9" cy="101.6" r="2.9"/>
</g>
<g id="Calque_85">
	<circle fill="#8991A5" cx="70.8" cy="101.6" r="2.9"/>
</g>
<g id="Calque_84">
	<circle fill="#8991A5" cx="86.7" cy="101.6" r="2.9"/>
</g>
<g id="Calque_83">
	<circle fill="#8991A5" cx="102.6" cy="101.6" r="2.9"/>
</g>
<g id="Calque_82">
	<circle fill="#8991A5" cx="118.6" cy="101.6" r="2.9"/>
</g>
<g id="Calque_81">
	<circle fill="#8991A5" cx="134.5" cy="101.6" r="2.9"/>
</g>
<g id="Calque_80">
	<circle fill="#8991A5" cx="150.4" cy="101.6" r="2.9"/>
</g>
<g id="Calque_79">
	<circle fill="#8991A5" cx="166.3" cy="101.6" r="2.9"/>
</g>
<g id="Calque_78">
	<circle fill="#8991A5" cx="182.2" cy="101.6" r="2.9"/>
</g>
<g id="Calque_77">
	<circle fill="#8991A5" cx="198.2" cy="101.6" r="2.9"/>
</g>
<g id="Calque_76">
	<circle fill="#8991A5" cx="214.1" cy="101.6" r="2.9"/>
</g>
<g id="Calque_75">
	<circle fill="#8991A5" cx="7.1" cy="117.5" r="2.9"/>
</g>
<g id="Calque_74">
	<circle fill="#8991A5" cx="23" cy="117.5" r="2.9"/>
</g>
<g id="Calque_73">
	<circle fill="#8991A5" cx="38.9" cy="117.5" r="2.9"/>
</g>
<g id="Calque_72">
	<circle fill="#8991A5" cx="54.9" cy="117.5" r="2.9"/>
</g>
<g id="Calque_71">
	<circle fill="#8991A5" cx="70.8" cy="117.5" r="2.9"/>
</g>
<g id="Calque_70">
	<circle fill="#8991A5" cx="86.7" cy="117.5" r="2.9"/>
</g>
<g id="Calque_69">
	<circle fill="#8991A5" cx="102.6" cy="117.5" r="2.9"/>
</g>
<g id="Calque_68">
	<circle fill="#8991A5" cx="118.6" cy="117.5" r="2.9"/>
</g>
<g id="Calque_67">
	<circle fill="#8991A5" cx="134.5" cy="117.5" r="2.9"/>
</g>
<g id="Calque_66">
	<circle fill="#8991A5" cx="150.4" cy="117.5" r="2.9"/>
</g>
<g id="Calque_65">
	<circle fill="#8991A5" cx="166.3" cy="117.5" r="2.9"/>
</g>
<g id="Calque_64">
	<circle fill="#8991A5" cx="182.2" cy="117.5" r="2.9"/>
</g>
<g id="Calque_63">
	<circle fill="#8991A5" cx="198.2" cy="117.5" r="2.9"/>
</g>
<g id="Calque_62">
	<circle fill="#8991A5" cx="214.1" cy="117.5" r="2.9"/>
</g>
<g id="Calque_61">
	<circle fill="#8991A5" cx="7.1" cy="133.4" r="2.9"/>
</g>
<g id="Calque_60">
	<circle fill="#8991A5" cx="23" cy="133.4" r="2.9"/>
</g>
<g id="Calque_59">
	<circle fill="#8991A5" cx="38.9" cy="133.4" r="2.9"/>
</g>
<g id="Calque_58">
	<circle fill="#8991A5" cx="54.9" cy="133.4" r="2.9"/>
</g>
<g id="Calque_57">
	<circle fill="#8991A5" cx="70.8" cy="133.4" r="2.9"/>
</g>
<g id="Calque_56">
	<circle fill="#8991A5" cx="86.7" cy="133.4" r="2.9"/>
</g>
<g id="Calque_55">
	<circle fill="#8991A5" cx="102.6" cy="133.4" r="2.9"/>
</g>
<g id="Calque_54">
	<circle fill="#8991A5" cx="118.6" cy="133.4" r="2.9"/>
</g>
<g id="Calque_53">
	<circle fill="#8991A5" cx="134.5" cy="133.4" r="2.9"/>
</g>
<g id="Calque_52">
	<circle fill="#8991A5" cx="150.4" cy="133.4" r="2.9"/>
</g>
<g id="Calque_51">
	<circle fill="#8991A5" cx="166.3" cy="133.4" r="2.9"/>
</g>
<g id="Calque_50">
	<circle fill="#8991A5" cx="182.2" cy="133.4" r="2.9"/>
</g>
<g id="Calque_49">
	<circle fill="#8991A5" cx="198.2" cy="133.4" r="2.9"/>
</g>
<g id="Calque_48">
	<circle fill="#8991A5" cx="214.1" cy="133.4" r="2.9"/>
</g>
<g id="Calque_47">
	<circle fill="#8991A5" cx="7.1" cy="149.3" r="2.9"/>
</g>
<g id="Calque_46">
	<circle fill="#8991A5" cx="23" cy="149.3" r="2.9"/>
</g>
<g id="Calque_45">
	<circle fill="#8991A5" cx="38.9" cy="149.3" r="2.9"/>
</g>
<g id="Calque_44">
	<circle fill="#8991A5" cx="54.9" cy="149.3" r="2.9"/>
</g>
<g id="Calque_43">
	<circle fill="#8991A5" cx="70.8" cy="149.3" r="2.9"/>
</g>
<g id="Calque_42">
	<circle fill="#8991A5" cx="86.7" cy="149.3" r="2.9"/>
</g>
<g id="Calque_41">
	<circle fill="#8991A5" cx="102.6" cy="149.3" r="2.9"/>
</g>
<g id="Calque_40">
	<circle fill="#8991A5" cx="118.6" cy="149.3" r="2.9"/>
</g>
<g id="Calque_39">
	<circle fill="#8991A5" cx="134.5" cy="149.3" r="2.9"/>
</g>
<g id="Calque_38">
	<circle fill="#8991A5" cx="150.4" cy="149.3" r="2.9"/>
</g>
<g id="Calque_37">
	<circle fill="#8991A5" cx="166.3" cy="149.3" r="2.9"/>
</g>
<g id="Calque_36">
	<circle fill="#8991A5" cx="182.2" cy="149.3" r="2.9"/>
</g>
<g id="Calque_35">
	<circle fill="#8991A5" cx="198.2" cy="149.3" r="2.9"/>
</g>
<g id="Calques_34">
	<circle fill="#8991A5" cx="214.1" cy="149.3" r="2.9"/>
</g>
<g id="Calque_33">
	<circle fill="#8991A5" cx="7.1" cy="165.3" r="2.9"/>
</g>
<g id="Calque_32">
	<circle fill="#8991A5" cx="23" cy="165.3" r="2.9"/>
</g>
<g id="Calque_31">
	<circle fill="#8991A5" cx="38.9" cy="165.3" r="2.9"/>
</g>
<g id="Calque_30">
	<circle fill="#8991A5" cx="54.9" cy="165.3" r="2.9"/>
</g>
<g id="Calque_29">
	<circle fill="#8991A5" cx="70.8" cy="165.3" r="2.9"/>
</g>
<g id="Calque_28">
	<circle fill="#8991A5" cx="86.7" cy="165.3" r="2.9"/>
</g>
<g id="Calque_27">
	<circle fill="#8991A5" cx="102.6" cy="165.3" r="2.9"/>
</g>
<g id="Calque_26">
	<circle fill="#8991A5" cx="118.6" cy="165.3" r="2.9"/>
</g>
<g id="Calque_25">
	<circle fill="#8991A5" cx="134.5" cy="165.3" r="2.9"/>
</g>
<g id="Calque_24">
	<circle fill="#8991A5" cx="150.4" cy="165.3" r="2.9"/>
</g>
<g id="Calque_23">
	<circle fill="#8991A5" cx="166.3" cy="165.3" r="2.9"/>
</g>
<g id="Calque_22">
	<circle fill="#8991A5" cx="182.2" cy="165.3" r="2.9"/>
</g>
<g id="Calque_21">
	<circle fill="#8991A5" cx="198.2" cy="165.3" r="2.9"/>
</g>
<g id="Calque_20">
	<circle fill="#8991A5" cx="214.1" cy="165.3" r="2.9"/>
</g>
<g id="Calque_19">
	<circle fill="#8991A5" cx="7.1" cy="181.2" r="2.9"/>
</g>
<g id="Calque_18">
	<circle fill="#8991A5" cx="23" cy="181.2" r="2.9"/>
</g>
<g id="Calque_17">
	<circle fill="#8991A5" cx="38.9" cy="181.2" r="2.9"/>
</g>
<g id="Calque_16">
	<circle fill="#8991A5" cx="54.9" cy="181.2" r="2.9"/>
</g>
<g id="Calque_15">
	<circle fill="#8991A5" cx="70.8" cy="181.2" r="2.9"/>
</g>
<g id="Calque_14">
	<circle fill="#8991A5" cx="86.7" cy="181.2" r="2.9"/>
</g>
<g id="Calque_13">
	<circle fill="#8991A5" cx="102.6" cy="181.2" r="2.9"/>
</g>
<g id="Calque_12">
	<circle fill="#8991A5" cx="118.6" cy="181.2" r="2.9"/>
</g>
<g id="Calque_11">
	<circle fill="#8991A5" cx="134.5" cy="181.2" r="2.9"/>
</g>
<g id="Calque_10">
	<circle fill="#8991A5" cx="150.4" cy="181.2" r="2.9"/>
</g>
<g id="Calque_9">
	<circle fill="#8991A5" cx="166.3" cy="181.2" r="2.9"/>
</g>
<g id="Calque_8">
	<circle fill="#8991A5" cx="182.2" cy="181.2" r="2.9"/>
</g>
<g id="Calque_7">
	<circle fill="#8991A5" cx="198.2" cy="181.2" r="2.9"/>
</g>
<g id="Calque_6">
	<circle fill="#8991A5" cx="214.1" cy="181.2" r="2.9"/>
</g>
<g id="B">
	<path fill="#8991A5" d="M36.4,232.8c0,9.3-7.4,12.2-17.7,12.2H6v-42.4h11.1c10.9,0,17.5,3.1,17.5,10.8c0,5.3-3.8,8.3-7.8,9.1
		C31.6,223.5,36.4,225.7,36.4,232.8z M14.1,220h5c4.4,0,7.3-2,7.3-5.9c0-4.3-2.9-5.5-8.5-5.5h-3.8V220z M18.8,238.9
		c5.3,0,9.2-1.1,9.2-6.4c0-5.1-3.6-6.8-8.3-6.8h-5.6v13.2H18.8z"/>
</g>
<g id="L">
	<path fill="#8991A5" d="M77.2,238.4l-0.9,6.6H52.1v-42.4h8.1v35.7H77.2z"/>
</g>
<g id="A">
	<path fill="#8991A5" d="M97.5,235.2l-2.6,9.8h-8.4l13.2-42.4h10l13.1,42.4h-8.6l-2.6-9.8H97.5z M104.5,208.8L99.1,229h10.8
		L104.5,208.8z"/>
</g>
<g id="N">
	<path fill="#8991A5" d="M156.8,245l-14.5-34.3c0.4,3.7,1.1,9.1,1.1,17V245h-7.4v-42.4h10.2l14.8,34.3c-0.4-2.3-1.1-8.5-1.1-14.5
		v-19.9h7.4V245H156.8z"/>
</g>
<g id="K">
	<path fill="#8991A5" d="M185.8,245v-42.4h8.1V245H185.8z M218.9,245h-9.6l-15-22.6l14.7-19.7h8.8l-14.7,19.2L218.9,245z"/>
</g>
<g id="Barre">
	<rect x="4.2" y="178.3" fill="#8991A5" width="21.7" height="5.8"/>
</g>
</svg>
