<?xml version="1.0" encoding="utf-8"?>
<!-- Generator: Adobe Illustrator 16.0.0, SVG Export Plug-In . SVG Version: 6.00 Build 0)  -->
<!DOCTYPE svg PUBLIC "-//W3C//DTD SVG 1.1//EN" "http://www.w3.org/Graphics/SVG/1.1/DTD/svg11.dtd">
<svg version="1.1" id="Layer_1" xmlns="http://www.w3.org/2000/svg" xmlns:xlink="http://www.w3.org/1999/xlink" x="0px" y="0px"
	 width="32px" height="32px" viewBox="0 0 32 32" enable-background="new 0 0 32 32" xml:space="preserve">
<g>
	<g>
		<g>
			<path fill="#8A92A6" d="M16,2c3.74,0,7.256,1.456,9.899,4.1C28.544,8.745,30,12.261,30,16c0,3.74-1.456,7.256-4.101,9.9
				C23.256,28.543,19.74,30,16,30c-3.74,0-7.255-1.457-9.899-4.1C3.456,23.256,2,19.74,2,16c0-3.739,1.456-7.255,4.101-9.9
				C8.745,3.456,12.26,2,16,2 M16,1C12.161,1,8.322,2.464,5.394,5.393c-5.858,5.858-5.858,15.355,0,21.214
				C8.322,29.535,12.161,31,16,31s7.678-1.465,10.606-4.393c5.858-5.859,5.858-15.356,0-21.214C23.678,2.464,19.839,1,16,1L16,1z"/>
		</g>
	</g>
	<path fill="none" stroke="#8A92A6" stroke-miterlimit="10" d="M24,16c0,4.418-3.582,8-8,8s-8-3.582-8-8c0-4.418,3.582-8,8-8"/>
	<polygon fill="none" stroke="#8A92A6" stroke-miterlimit="10" points="16,8 16,10.309 18,9.155 20,8 18,6.845 16,5.691 	"/>
</g>
<g>
</g>
<g>
</g>
<g>
</g>
<g>
</g>
<g>
</g>
<g>
</g>
</svg>
