<?xml version="1.0" encoding="utf-8"?>
<!-- Generator: Adobe Illustrator 16.0.0, SVG Export Plug-In . SVG Version: 6.00 Build 0)  -->
<!DOCTYPE svg PUBLIC "-//W3C//DTD SVG 1.1//EN" "http://www.w3.org/Graphics/SVG/1.1/DTD/svg11.dtd">
<svg version="1.1" id="Layer_1" xmlns="http://www.w3.org/2000/svg" xmlns:xlink="http://www.w3.org/1999/xlink" x="0px" y="0px"
	 width="470px" height="380px" viewBox="0 0 470 380" enable-background="new 0 0 470 380" xml:space="preserve">
<g opacity="0.6">
	<path fill="#F7F8F8" stroke="#CDCCCC" stroke-miterlimit="10" d="M448.44,264.5H22.88c-1.007,0-1.38-1.971-1.38-2.924V21.788
		c0-0.921,0.336-1.288,1.38-1.288H448.44c0.268,0,0.507-0.597,0.69-0.412c0.449,0.453,0.374,1.412,0.371,1.412H449.5v240.076
		l0.037,0.133c0.002,0.516,0.022,1.596-0.322,1.943C449.02,263.85,448.771,264.5,448.44,264.5z"/>
</g>
<g>
	<g>
		<path fill="none" stroke="#8A92A6" stroke-width="0.1861" stroke-miterlimit="10" d="M235.283,14.164
			c-1.407,0-2.551-1.144-2.551-2.552c0-1.406,1.144-2.551,2.551-2.551c1.404,0,2.549,1.146,2.549,2.551
			C237.832,13.02,236.688,14.164,235.283,14.164z"/>
	</g>
</g>
<path fill="none" stroke="#8A92A6" stroke-width="0.1861" stroke-miterlimit="10" d="M289.595,323.639h163.234
	c7.783,0,14.092-6.311,14.092-14.092V16.535c0-7.751-6.283-14.035-14.036-14.035H17.735C9.873,2.5,3.5,8.873,3.5,16.735v292.611
	c0,7.86,6.431,14.292,14.292,14.292h162.325H289.595z M180.117,323.639c2.039,0,3.581,1.844,3.221,3.85l-5.218,29.068
	c-0.134,0.742-0.519,1.415-1.091,1.905l-15.963,13.683c-0.723,0.621-1.139,1.526-1.139,2.479v0.016c0,0.916,0.793,2.32,1.967,2.32
	H309.12c0.328,0,0.591-0.167,0.774-0.372c0.339-0.373,0.249-0.963,0.2-1.455c-0.016-0.167-0.067-0.356-0.067-0.493v-0.016
	c0-0.953-0.419-1.858-1.146-2.474l-16.191-13.688c-0.582-0.49-0.975-1.17-1.108-1.92l-5.207-29.053
	c-0.359-2.008,1.183-3.85,3.221-3.85 M17.735,3.431h435.15c7.238,0,13.105,5.867,13.105,13.104v259.908
	c0,1.808-1.465,3.272-3.271,3.272H7.703c-1.807,0-3.272-1.465-3.272-3.272V16.735C4.431,9.417,10.417,3.431,17.735,3.431z"/>
<g>
</g>
<g>
</g>
<g>
</g>
<g>
</g>
<g>
</g>
<g>
</g>
</svg>
