<?xml version="1.0" encoding="utf-8"?>
<!-- Generator: Adobe Illustrator 16.0.0, SVG Export Plug-In . SVG Version: 6.00 Build 0)  -->
<!DOCTYPE svg PUBLIC "-//W3C//DTD SVG 1.1//EN" "http://www.w3.org/Graphics/SVG/1.1/DTD/svg11.dtd">
<svg version="1.1" id="Layer_1" xmlns="http://www.w3.org/2000/svg" xmlns:xlink="http://www.w3.org/1999/xlink" x="0px" y="0px"
	 width="180px" height="380px" viewBox="0 0 180 380" enable-background="new 0 0 180 380" xml:space="preserve">
<path fill="none" stroke="#8A92A6" stroke-width="0.4573" stroke-miterlimit="10" d="M5.078,75.055H4.092
	c-0.505,0-0.914-0.409-0.914-0.914V61.183c0-0.505,0.409-0.914,0.914-0.914h0.986V75.055z"/>
<path fill="none" stroke="#8A92A6" stroke-width="0.4573" stroke-miterlimit="10" d="M5.078,106.077H4.092
	c-0.505,0-0.914-0.41-0.914-0.915V94.72c0-0.506,0.409-0.915,0.914-0.915h0.986V106.077z"/>
<path fill="none" stroke="#8A92A6" stroke-width="0.4573" stroke-miterlimit="10" d="M5.078,136.412H4.092
	c-0.505,0-0.914-0.409-0.914-0.915v-10.442c0-0.505,0.409-0.915,0.914-0.915h0.986V136.412z"/>
<path fill="none" stroke="#8A92A6" stroke-width="0.2287" stroke-miterlimit="10" d="M148.3,9.733H120.86V8.516
	c0-0.505,0.409-0.915,0.914-0.915h25.61c0.505,0,0.915,0.41,0.915,0.915V9.733z"/>
<g opacity="0.6">
	<rect x="17.316" y="60.612" fill="#F7F8F8" width="147.027" height="260.441"/>
	<path fill="#CDCCCC" d="M164.001,60.955v259.756H17.659V60.955H164.001 M164.687,60.269h-0.686H17.659h-0.686v0.686v259.756v0.686
		h0.686h146.342h0.686v-0.686V60.955V60.269L164.687,60.269z"/>
</g>
<g>
	<g>
		<path fill="#8A92A6" d="M149.61,9.755c15.253,0,26.755,10.616,26.755,24.695v312.797c0,13.617-11.078,24.695-24.695,24.695H30.007
			c-13.617,0-24.696-11.078-24.696-24.695V34.45c0-13.155,10.577-24.695,22.635-24.695H149.61 M149.61,9.298H27.946
			c-11.831,0-23.093,11.261-23.093,25.152v312.797c0,13.892,11.262,25.152,25.153,25.152H151.67
			c13.892,0,25.152-11.261,25.152-25.152V34.45C176.822,20.559,165.562,9.298,149.61,9.298L149.61,9.298z"/>
	</g>
</g>
<circle fill="none" stroke="#8A92A6" stroke-width="0.2287" stroke-miterlimit="10" cx="91.182" cy="346.335" r="15.675"/>
<path fill="none" stroke="#8A92A6" stroke-width="0.4573" stroke-miterlimit="10" d="M106.628,40.86c0,1.895-1.536,3.431-3.43,3.431
	H78.959c-1.895,0-3.43-1.536-3.43-3.431l0,0c0-1.894,1.535-3.43,3.43-3.43h24.239C105.092,37.431,106.628,38.967,106.628,40.86
	L106.628,40.86z"/>
<path fill="none" stroke="#8A92A6" stroke-width="0.2287" stroke-miterlimit="10" d="M97.537,349.293c0,1.895-1.535,3.43-3.43,3.43
	h-5.64c-1.895,0-3.43-1.535-3.43-3.43v-5.64c0-1.895,1.535-3.431,3.43-3.431h5.64c1.895,0,3.43,1.536,3.43,3.431V349.293z"/>
<circle fill="none" stroke="#8A92A6" stroke-width="0.4573" stroke-miterlimit="10" cx="91.059" cy="27.189" r="3.201"/>
<g>
</g>
<g>
</g>
<g>
</g>
<g>
</g>
<g>
</g>
<g>
</g>
</svg>
