<?xml version="1.0" encoding="utf-8"?>
<!-- Generator: Adobe Illustrator 16.0.0, SVG Export Plug-In . SVG Version: 6.00 Build 0)  -->
<!DOCTYPE svg PUBLIC "-//W3C//DTD SVG 1.1//EN" "http://www.w3.org/Graphics/SVG/1.1/DTD/svg11.dtd">
<svg version="1.1" id="Layer_1" xmlns="http://www.w3.org/2000/svg" xmlns:xlink="http://www.w3.org/1999/xlink" x="0px" y="0px"
	 width="260px" height="380px" viewBox="0 0 260 380" enable-background="new 0 0 260 380" xml:space="preserve">
<g opacity="0.6">
	<g>
		<path fill="#F7F8F8" stroke="#CDCCCC" stroke-miterlimit="10" d="M242.5,337.324c0,0.758-0.367,1.176-1.065,1.176H19.044
			c-0.698,0-0.544-0.418-0.544-1.176V41.364c0-0.755-0.154-1.864,0.544-1.864h222.39c0.698,0,1.065,1.109,1.065,1.864V337.324z"/>
	</g>
	<g>
		<g>
			<path fill="none" stroke="#8A92A6" stroke-miterlimit="10" d="M256.5,358.288c0,10.61-8.602,19.212-19.213,19.212H22.713
				c-10.611,0-19.213-8.602-19.213-19.212V22.712C3.5,12.102,12.102,3.5,22.713,3.5h214.574c10.611,0,19.213,8.602,19.213,19.212
				V358.288z"/>
		</g>
	</g>
	<g>
		<g>
			<path fill="none" stroke="#8A92A6" stroke-width="0.265" stroke-miterlimit="10" d="M130.232,366.346
				c-5.406,0-9.805-4.398-9.805-9.805c0-5.407,4.399-9.806,9.805-9.806c5.407,0,9.806,4.398,9.806,9.806
				C140.038,361.947,135.64,366.346,130.232,366.346z"/>
		</g>
	</g>
	<g>
		<g>
			<path fill="none" stroke="#8A92A6" stroke-width="0.265" stroke-miterlimit="10" d="M130.234,24.468
				c-1.818,0-3.295-1.478-3.295-3.295c0-1.816,1.477-3.293,3.295-3.293c1.815,0,3.291,1.477,3.291,3.293
				C133.525,22.99,132.05,24.468,130.234,24.468z"/>
		</g>
	</g>
</g>
<g>
</g>
<g>
</g>
<g>
</g>
<g>
</g>
<g>
</g>
<g>
</g>
</svg>
